<svg id="Component_13_9" data-name="Component 13 – 9" xmlns="http://www.w3.org/2000/svg" width="49.861" height="37" viewBox="0 0 49.861 37">
  <g id="Group_492" data-name="Group 492" transform="translate(-42.053 -50.722)">
    <text id="LAB" transform="translate(72.914 87.722) rotate(-90)" fill="#0b397d" font-size="16" font-family="Montserrat-Bold, Montserrat" font-weight="700"><tspan x="0" y="15">LAB</tspan></text>
    <g id="O" transform="translate(31.234 42.481)">
      <path id="Path_807" data-name="Path 807" d="M29.307,30.18c8.164,0,13.237-5.8,13.237-15.053C42.543,5.833,37.445,0,29.237,0,20.949,0,16,5.741,16,15.259,16,24.426,21.1,30.18,29.307,30.18ZM23,15.071c0-5.5,2.235-8.522,6.293-8.522,4.023,0,6.24,3,6.24,8.447,0,5.487-2.275,8.634-6.24,8.634-3.941,0-6.293-3.2-6.293-8.56Z" transform="translate(-5.181 12.301)" fill="#0b397d"/>
    </g>
  </g>
</svg>
